# xmcd CD database file
#
# Track frame offsets:
#	150
#	17350
#	33127
#	53842
#	71410
#	87950
#
# Disc length: 1401 seconds
#
# Revision: 0
# Processed by: cddbd v1.5.1PL0 Copyright (c) Steve Scherf et al.
# Submitted via: CDex 1.51
#
DISCID=3b057706
DTITLE=Various Artist - ピカチュウのふゆやすみ サウンドトラック
DYEAR=2000
DGENRE=Anime
TTITLE0=愛河里花子/ホワイトダンス
TTITLE1=すどうまゆみ/もうすぐサンタがやってくる！
TTITLE2=神崎まき/アソビズム宣言
TTITLE3=神崎まき/クリスマスイブ
TTITLE4=ポケモンキッズ ポケモンパパさん(+ピカチュウ)/ふゆやすみファンクラブ
TTITLE5=ポケモンキッズ&オーキド博士(ピカチュウ ママ)/カラフルふゆやすみ
EXTD=YEAR: 2000
EXTT0=
EXTT1=
EXTT2=
EXTT3=
EXTT4=
EXTT5=
PLAYORDER=
